<svg xmlns="http://www.w3.org/2000/svg" viewBox="0 0 50 50"><defs><style>.cls-1{fill:#c30d23;}.cls-2{fill:none;stroke:#fff;stroke-miterlimit:10;stroke-width:0.5px;}</style></defs><title>農場活動官網設計</title><g id="圖層_1" data-name="圖層 1"><path class="cls-1" d="M43.38,12.93h0A7.55,7.55,0,0,1,47,26.27h0a7.55,7.55,0,0,0-2.31,8.61h0a7.54,7.54,0,0,1-9.76,9.76h0A7.55,7.55,0,0,0,26.27,47h0a7.55,7.55,0,0,1-13.34-3.57h0a7.58,7.58,0,0,0-6.31-6.31h0A7.55,7.55,0,0,1,3.05,23.73h0a7.55,7.55,0,0,0,2.31-8.61h0a7.54,7.54,0,0,1,9.76-9.76h0a7.55,7.55,0,0,0,8.61-2.31h0A7.55,7.55,0,0,1,37.07,6.62h0A7.58,7.58,0,0,0,43.38,12.93Z"/><path class="cls-2" d="M42.15,13.73h0a7,7,0,0,1,3.33,12.45h0a7.05,7.05,0,0,0-2.15,8h0a7,7,0,0,1-9.11,9.11h0a7.05,7.05,0,0,0-8,2.15h0a7,7,0,0,1-12.45-3.33h0a7,7,0,0,0-5.88-5.88h0A7,7,0,0,1,4.52,23.82h0a7.05,7.05,0,0,0,2.15-8h0a7,7,0,0,1,9.11-9.11h0a7.05,7.05,0,0,0,8-2.15h0A7,7,0,0,1,36.27,7.85h0A7,7,0,0,0,42.15,13.73Z"/></g></svg>
